<svg width="50" height="50" xmlns="http://www.w3.org/2000/svg"><path d="M32 44h3V6H15v38h3V34a1 1 0 0 1 1-1h12a1 1 0 0 1 1 1v10zM20 10v2h2v-2h-2zm-1-2h4a1 1 0 0 1 1 1v4a1 1 0 0 1-1 1h-4a1 1 0 0 1-1-1V9a1 1 0 0 1 1-1zm9 2v2h2v-2h-2zm-1-2h4a1 1 0 0 1 1 1v4a1 1 0 0 1-1 1h-4a1 1 0 0 1-1-1V9a1 1 0 0 1 1-1zm-7 10v2h2v-2h-2zm-1-2h4a1 1 0 0 1 1 1v4a1 1 0 0 1-1 1h-4a1 1 0 0 1-1-1v-4a1 1 0 0 1 1-1zm9 2v2h2v-2h-2zm-1-2h4a1 1 0 0 1 1 1v4a1 1 0 0 1-1 1h-4a1 1 0 0 1-1-1v-4a1 1 0 0 1 1-1zm1 10v2h2v-2h-2zm-1-2h4a1 1 0 0 1 1 1v4a1 1 0 0 1-1 1h-4a1 1 0 0 1-1-1v-4a1 1 0 0 1 1-1zm-7 2v2h2v-2h-2zm-1-2h4a1 1 0 0 1 1 1v4a1 1 0 0 1-1 1h-4a1 1 0 0 1-1-1v-4a1 1 0 0 1 1-1zm1 11v9h10v-9H20zm4 0h2v9h-2v-9zm13 9h6v2H7v-2h6V6a2 2 0 0 1 2-2h20a2 2 0 0 1 2 2v38z" fill="#5772B4" fill-rule="nonzero"/></svg>