<svg width="50" height="50" xmlns="http://www.w3.org/2000/svg"><path d="M18 16H6v5.484c3.816 2.632 9.147 4.123 16.001 4.448A2 2 0 0 1 24 24h2a2 2 0 0 1 1.999 1.927c6.866-.338 12.197-1.85 16.001-4.514V16H18zm-2-2v-3a2 2 0 0 1 2-2h14a2 2 0 0 1 2 2v3h10a2 2 0 0 1 2 2v24a2 2 0 0 1-2 2H6a2 2 0 0 1-2-2V16a2 2 0 0 1 2-2h10zm2 0h14v-3H18v3zM6 23.86V40h38V23.798c-4.045 2.446-9.38 3.817-16 4.132V29a2 2 0 0 1-2 2h-2a2 2 0 0 1-2-2v-1.066c-6.61-.303-11.946-1.654-16-4.075zM24 26v3h2v-3h-2z" fill="#5772B4" fill-rule="nonzero"/></svg>